<svg data-v-fde0c5aa="" xmlns="http://www.w3.org/2000/svg" viewBox="0 0 300 300" class="icon"><!----><defs data-v-fde0c5aa=""><!----></defs><rect data-v-fde0c5aa="" fill="#EBF2F2" x="0" y="0" width="300px" height="300px" class="logo-background-square"></rect><!----><defs data-v-fde0c5aa=""><linearGradient data-v-fde0c5aa="" gradientTransform="rotate(25)" id="4950280b-5b17-479d-9a0d-cdbd916b51db" x1="0%" y1="0%" x2="100%" y2="0%"><stop data-v-fde0c5aa="" offset="0%" stop-color="#050922" stop-opacity="1"></stop><stop data-v-fde0c5aa="" offset="100%" stop-color="#6EE6C7" stop-opacity="1"></stop></linearGradient></defs><g data-v-fde0c5aa="" id="3600a957-d257-40a2-8477-3fa6a3f3b5f4" fill="url(#4950280b-5b17-479d-9a0d-cdbd916b51db)" stroke="none" transform="matrix(2.573099374771118,0,0,2.573099374771118,18.89756944444445,29.707602339181285)"><path d="M38.7 46.7c0 8 6.5 14.5 14.5 14.5s14.5-6.5 14.5-14.5-6.5-14.5-14.5-14.5-14.5 6.5-14.5 14.5z"></path><path d="M71.5 57.3c-.6 1.1-1.3 2.1-2.1 3.1-4 4.9-10 8-16.8 8-11.9 0-21.6-9.7-21.6-21.7 0-11.9 9.7-21.6 21.6-21.6 6.7 0 12.7 3.1 16.7 7.8.8.9 1.5 1.9 2.1 3l20.7-5.8c-1.5-3.5-3.4-6.7-5.6-9.6C78.6 10.5 66.4 4 52.6 4 29 4 9.8 23.1 9.8 46.7S29 89.5 52.6 89.5c17.7 0 33-10.8 39.5-26.2l-20.6-6z"></path></g><!----></svg>