<svg data-v-423bf9ae="" xmlns="http://www.w3.org/2000/svg" viewBox="0 0 334 90" class="iconLeft"><!----><!----><!----><g data-v-423bf9ae="" id="1d84b84e-3f6a-466a-ac18-0dceeb3de36c" fill="white" transform="matrix(4.797001838684082,0,0,4.797001838684082,102.21016693115234,7.991880416870117)"><path d="M4.98 4.56L4.98 4.56L4.98 4.56Q4.98 3.14 2.84 3.12L2.84 3.12L1.93 3.12L1.93 6.24L2.72 6.24L2.72 6.24Q3.71 6.24 4.35 5.80L4.35 5.80L4.35 5.80Q4.98 5.35 4.98 4.56ZM5.31 8.92L5.31 8.92L5.31 8.92Q5.31 8.11 4.55 7.62L4.55 7.62L4.55 7.62Q3.79 7.14 2.44 7.14L2.44 7.14L1.93 7.14L1.93 10.91L2.60 10.91L2.60 10.91Q5.31 10.91 5.31 8.92ZM6.34 8.86L6.34 8.86L6.34 8.86Q6.34 11.80 2.58 11.80L2.58 11.80L1.32 11.80L1.32 11.80Q1.02 11.80 0.97 11.75L0.97 11.75L0.97 11.75Q0.92 11.70 0.92 11.41L0.92 11.41L0.92 2.60L0.92 2.60Q0.92 2.34 0.97 2.30L0.97 2.30L0.97 2.30Q1.02 2.25 1.32 2.25L1.32 2.25L2.84 2.25L2.84 2.25Q6.02 2.25 6.02 4.54L6.02 4.54L6.02 4.54Q6.02 6.27 4.17 6.64L4.17 6.64L4.17 6.64Q5.24 6.92 5.79 7.53L5.79 7.53L5.79 7.53Q6.34 8.15 6.34 8.86ZM13.16 11.61L13.16 11.61L13.16 11.61Q13.16 11.80 12.96 11.80L12.96 11.80L12.46 11.80L12.46 11.80Q12.26 11.80 12.26 11.61L12.26 11.61L12.26 10.44L12.26 10.44Q11.90 11.28 11.37 11.66L11.37 11.66L11.37 11.66Q10.84 12.03 10.11 12.03L10.11 12.03L10.11 12.03Q7.84 12.03 7.84 9.10L7.84 9.10L7.84 4.98L7.84 4.98Q7.84 4.79 8.04 4.79L8.04 4.79L8.60 4.79L8.60 4.79Q8.79 4.79 8.79 4.98L8.79 4.98L8.79 8.85L8.79 8.85Q8.79 11.23 10.26 11.23L10.26 11.23L10.26 11.23Q10.60 11.23 10.95 11.00L10.95 11.00L10.95 11.00Q11.30 10.77 11.59 10.37L11.59 10.37L11.59 10.37Q11.89 9.97 12.04 9.44L12.04 9.44L12.04 9.44Q12.19 8.90 12.18 8.32L12.18 8.32L12.18 4.98L12.18 4.98Q12.18 4.79 12.38 4.79L12.38 4.79L12.94 4.79L12.94 4.79Q13.13 4.79 13.13 4.98L13.13 4.98L13.13 10.05L13.13 10.05Q13.13 10.51 13.14 10.88L13.14 10.88L13.14 10.88Q13.15 11.24 13.16 11.61ZM20.16 1.64L20.16 11.62L20.16 11.62Q20.16 11.80 19.96 11.80L19.96 11.80L19.42 11.80L19.42 11.80Q19.22 11.80 19.22 11.62L19.22 11.62L19.22 10.60L19.22 10.60Q18.65 11.94 17.26 11.94L17.26 11.94L17.26 11.94Q16.62 11.94 16.09 11.63L16.09 11.63L16.09 11.63Q15.57 11.33 15.19 10.75L15.19 10.75L15.19 10.75Q14.81 10.16 14.65 9.49L14.65 9.49L14.65 9.49Q14.49 8.82 14.49 8.08L14.49 8.08L14.49 8.08Q14.49 6.76 15.22 5.66L15.22 5.66L15.22 5.66Q15.95 4.56 17.26 4.56L17.26 4.56L17.26 4.56Q17.96 4.56 18.46 4.91L18.46 4.91L18.46 4.91Q18.96 5.26 19.22 5.81L19.22 5.81L19.22 1.64L19.22 1.64Q19.22 1.46 19.42 1.46L19.42 1.46L19.96 1.46L19.96 1.46Q20.16 1.46 20.16 1.64L20.16 1.64ZM15.48 8.23L15.48 8.23L15.48 8.23Q15.47 8.67 15.57 9.18L15.57 9.18L15.57 9.18Q15.67 9.69 15.90 10.14L15.90 10.14L15.90 10.14Q16.13 10.60 16.48 10.86L16.48 10.86L16.48 10.86Q16.83 11.13 17.35 11.13L17.35 11.13L17.35 11.13Q17.86 11.13 18.21 10.86L18.21 10.86L18.21 10.86Q18.56 10.60 18.80 10.14L18.80 10.14L18.80 10.14Q19.03 9.69 19.11 9.18L19.11 9.18L19.11 9.18Q19.19 8.67 19.19 8.23L19.19 8.23L19.19 8.23Q19.19 7.83 19.11 7.30L19.11 7.30L19.11 7.30Q19.03 6.78 18.80 6.33L18.80 6.33L18.80 6.33Q18.56 5.88 18.21 5.61L18.21 5.61L18.21 5.61Q17.86 5.35 17.35 5.35L17.35 5.35L17.35 5.35Q16.83 5.35 16.48 5.61L16.48 5.61L16.48 5.61Q16.13 5.88 15.89 6.33L15.89 6.33L15.89 6.33Q15.65 6.78 15.56 7.30L15.56 7.30L15.56 7.30Q15.47 7.83 15.48 8.23ZM22.20 13.64L22.20 13.64L22.20 13.64Q22.05 13.59 22.08 13.44L22.08 13.44L22.11 12.81L22.11 12.81Q22.11 12.63 22.29 12.73L22.29 12.73L22.29 12.73Q22.81 12.96 23.25 13.07L23.25 13.07L23.25 13.07Q23.70 13.17 24.07 13.17L24.07 13.17L24.07 13.17Q25.02 13.17 25.59 12.45L25.59 12.45L25.59 12.45Q26.17 11.73 26.22 10.35L26.22 10.35L26.22 10.35Q25.91 10.95 25.41 11.25L25.41 11.25L25.41 11.25Q24.91 11.55 24.28 11.55L24.28 11.55L24.28 11.55Q23.67 11.55 23.18 11.32L23.18 11.32L23.18 11.32Q22.68 11.09 22.32 10.65L22.32 10.65L22.32 10.65Q21.97 10.22 21.78 9.58L21.78 9.58L21.78 9.58Q21.59 8.93 21.59 8.19L21.59 8.19L21.59 8.19Q21.59 7.42 21.78 6.76L21.78 6.76L21.78 6.76Q21.97 6.10 22.32 5.61L22.32 5.61L22.32 5.61Q22.68 5.12 23.18 4.87L23.18 4.87L23.18 4.87Q23.67 4.62 24.28 4.62L24.28 4.62L24.28 4.62Q24.91 4.62 25.46 4.96L25.46 4.96L25.46 4.96Q26.01 5.31 26.26 5.82L26.26 5.82L26.24 4.97L26.24 4.97Q26.24 4.79 26.43 4.79L26.43 4.79L26.95 4.79L26.95 4.79Q27.15 4.79 27.15 4.97L27.15 4.97L27.15 10.12L27.15 10.12Q27.15 10.93 26.93 11.70L26.93 11.70L26.93 11.70Q26.71 12.47 26.29 12.97L26.29 12.97L26.29 12.97Q25.86 13.47 25.33 13.72L25.33 13.72L25.33 13.72Q24.79 13.97 24.05 13.97L24.05 13.97L24.05 13.97Q23.63 13.97 23.17 13.90L23.17 13.90L23.17 13.90Q22.71 13.82 22.20 13.64ZM22.60 8.08L22.60 8.08L22.60 8.08Q22.60 8.48 22.67 8.95L22.67 8.95L22.67 8.95Q22.75 9.42 22.98 9.87L22.98 9.87L22.98 9.87Q23.21 10.32 23.56 10.53L23.56 10.53L23.56 10.53Q23.91 10.74 24.40 10.74L24.40 10.74L24.40 10.74Q24.89 10.74 25.23 10.49L25.23 10.49L25.23 10.49Q25.58 10.25 25.81 9.84L25.81 9.84L25.81 9.84Q26.04 9.42 26.11 8.95L26.11 8.95L26.11 8.95Q26.18 8.48 26.18 8.08L26.18 8.08L26.18 8.08Q26.18 7.70 26.11 7.22L26.11 7.22L26.11 7.22Q26.04 6.73 25.81 6.33L25.81 6.33L25.81 6.33Q25.58 5.92 25.23 5.68L25.23 5.68L25.23 5.68Q24.89 5.43 24.40 5.43L24.40 5.43L24.40 5.43Q23.91 5.43 23.57 5.68L23.57 5.68L23.57 5.68Q23.23 5.92 22.99 6.33L22.99 6.33L22.99 6.33Q22.75 6.73 22.67 7.22L22.67 7.22L22.67 7.22Q22.60 7.70 22.60 8.08ZM29.62 7.84L33.38 7.84L33.38 7.84Q33.38 7.41 33.27 6.96L33.27 6.96L33.27 6.96Q33.17 6.51 32.96 6.17L32.96 6.17L32.96 6.17Q32.47 5.36 31.56 5.36L31.56 5.36L31.56 5.36Q30.65 5.36 30.13 6.19L30.13 6.19L30.13 6.19Q29.89 6.59 29.76 7.03L29.76 7.03L29.76 7.03Q29.64 7.46 29.62 7.84L29.62 7.84ZM33.91 8.64L29.61 8.64L29.61 8.64Q29.60 9.09 29.77 9.61L29.77 9.61L29.77 9.61Q29.95 10.14 30.25 10.47L30.25 10.47L30.25 10.47Q30.56 10.79 30.95 10.99L30.95 10.99L30.95 10.99Q31.35 11.19 31.91 11.19L31.91 11.19L31.91 11.19Q32.40 11.19 32.82 11.09L32.82 11.09L32.82 11.09Q33.24 10.99 33.66 10.77L33.66 10.77L33.66 10.77Q33.82 10.70 33.84 10.86L33.84 10.86L33.84 11.51L33.84 11.51Q33.84 11.62 33.68 11.69L33.68 11.69L33.68 11.69Q33.25 11.86 32.84 11.94L32.84 11.94L32.84 11.94Q32.42 12.03 31.84 12.03L31.84 12.03L31.84 12.03Q30.34 12.03 29.46 11.03L29.46 11.03L29.46 11.03Q28.57 10.02 28.57 8.33L28.57 8.33L28.57 8.33Q28.57 6.79 29.44 5.64L29.44 5.64L29.44 5.64Q30.35 4.56 31.57 4.56L31.57 4.56L31.57 4.56Q32.33 4.56 32.82 4.83L32.82 4.83L32.82 4.83Q33.32 5.10 33.71 5.64L33.71 5.64L33.71 5.64Q34.41 6.58 34.41 8.19L34.41 8.19L34.41 8.19Q34.41 8.36 34.41 8.45L34.41 8.45L34.41 8.45Q34.40 8.54 34.36 8.58L34.36 8.58L34.36 8.58Q34.31 8.62 34.21 8.63L34.21 8.63L34.21 8.63Q34.10 8.64 33.91 8.64L33.91 8.64ZM40.98 11.79L40.98 11.79L40.98 11.79Q40.39 12.03 39.61 12.03L39.61 12.03L39.61 12.03Q38.33 12.03 37.97 11.28L37.97 11.28L37.97 11.28Q37.73 10.78 37.73 9.51L37.73 9.51L37.73 5.92L35.91 5.92L35.91 5.92Q35.71 5.92 35.71 5.73L35.71 5.73L35.71 5.31L35.71 5.31Q35.71 5.11 35.91 5.11L35.91 5.11L37.73 5.11L37.73 3.14L37.73 3.14Q37.73 2.93 37.91 2.93L37.91 2.93L38.50 2.93L38.50 2.93Q38.68 2.93 38.68 3.14L38.68 3.14L38.68 5.11L40.94 5.11L40.94 5.11Q41.13 5.11 41.13 5.31L41.13 5.31L41.13 5.73L41.13 5.73Q41.13 5.92 40.94 5.92L40.94 5.92L38.68 5.92L38.68 10.14L38.68 10.14Q38.68 11.19 39.83 11.19L39.83 11.19L39.83 11.19Q40.40 11.19 40.92 10.95L40.92 10.95L40.92 10.95Q40.99 10.92 41.05 10.95L41.05 10.95L41.05 10.95Q41.12 10.98 41.12 11.06L41.12 11.06L41.15 11.51L41.15 11.51Q41.17 11.70 40.98 11.79ZM42.80 13.87L42.80 13.87L42.80 13.87Q42.63 13.83 42.66 13.66L42.66 13.66L42.70 13.15L42.70 13.15Q42.70 12.98 42.87 13.05L42.87 13.05L42.87 13.05Q43.11 13.13 43.39 13.13L43.39 13.13L43.39 13.13Q43.68 13.13 43.92 13.06L43.92 13.06L43.92 13.06Q44.17 12.99 44.30 12.84L44.30 12.84L44.30 12.84Q44.45 12.64 44.64 12.19L44.64 12.19L44.64 12.19Q44.83 11.75 45.01 11.17L45.01 11.17L45.01 11.17Q44.38 9.46 42.71 4.98L42.71 4.98L42.71 4.98Q42.69 4.91 42.71 4.85L42.71 4.85L42.71 4.85Q42.74 4.79 42.83 4.79L42.83 4.79L43.43 4.79L43.43 4.79Q43.62 4.79 43.71 4.98L43.71 4.98L45.47 9.91L47.29 4.98L47.29 4.98Q47.36 4.79 47.57 4.79L47.57 4.79L48.17 4.79L48.17 4.79Q48.26 4.79 48.29 4.85L48.29 4.85L48.29 4.85Q48.31 4.91 48.29 4.98L48.29 4.98L45.51 12.24L45.51 12.24Q45.36 12.64 45.17 12.96L45.17 12.96L45.17 12.96Q44.98 13.29 44.79 13.48L44.79 13.48L44.79 13.48Q44.53 13.72 44.23 13.84L44.23 13.84L44.23 13.84Q43.92 13.96 43.58 13.96L43.58 13.96L43.58 13.96Q43.37 13.96 43.20 13.94L43.20 13.94L43.20 13.94Q43.02 13.93 42.80 13.87Z"></path></g><!----><g data-v-423bf9ae="" id="a05a75ab-9d29-4324-97e1-faded39ab461" transform="matrix(1.0526316165924072,0,0,1.0526316165924072,-9.832033157348633,-4.2105278968811035)" stroke="none" fill="white"><path d="M38.7 46.7c0 8 6.5 14.5 14.5 14.5s14.5-6.5 14.5-14.5-6.5-14.5-14.5-14.5-14.5 6.5-14.5 14.5z"></path><path d="M71.5 57.3c-.6 1.1-1.3 2.1-2.1 3.1-4 4.9-10 8-16.8 8-11.9 0-21.6-9.7-21.6-21.7 0-11.9 9.7-21.6 21.6-21.6 6.7 0 12.7 3.1 16.7 7.8.8.9 1.5 1.9 2.1 3l20.7-5.8c-1.5-3.5-3.4-6.7-5.6-9.6C78.6 10.5 66.4 4 52.6 4 29 4 9.8 23.1 9.8 46.7S29 89.5 52.6 89.5c17.7 0 33-10.8 39.5-26.2l-20.6-6z"></path></g><!----></svg>